# xmcd
#
# Track frame offsets:
#	150
#	15912
#	29410
#	47466
#	59259
#	72964
#	87068
#	102301
#	118366
#	132534
#	153336
#
# Disc length: 2258 seconds
# Revision: 0
# Processed by: cddbd v1.5.2PL0 Copyright (c) Steve Scherf et al.
# Submitted via: dBpowerAMP V12.0
#
DISCID=8c08d00b
DTITLE=譚詠麟 - 譚詠麟_愛人女神_復黑王
DYEAR=1982
DGENRE=粵語流行曲
TTITLE0=柔柔河畔
TTITLE1=將軍抽車
TTITLE2=樣樣做到好
TTITLE3=愛人、女神
TTITLE4=無法不想你
TTITLE5=離別酒
TTITLE6=雨絲情愁
TTITLE7=我愛大自然
TTITLE8=Hold On Mary 諗真亦唔遲
TTITLE9=請說聲再會
TTITLE10=那次到海邊
EXTD=
EXTT0=
EXTT1=
EXTT2=
EXTT3=
EXTT4=
EXTT5=
EXTT6=
EXTT7=
EXTT8=
EXTT9=
EXTT10=
PLAYORDER=
